<svg width="424" height="157" viewBox="0 0 424 157" fill="none" xmlns="http://www.w3.org/2000/svg">
<path d="M6.656 50V3.728H19.264C23.8293 3.728 27.712 4.432 30.912 5.84C34.1547 7.248 36.7573 9.104 38.72 11.408C40.6827 13.712 42.112 16.272 43.008 19.088C43.9467 21.8613 44.416 24.6347 44.416 27.408C44.416 30.9067 43.7973 34.0427 42.56 36.816C41.3653 39.5893 39.7013 41.9573 37.568 43.92C35.4347 45.8827 32.9813 47.3973 30.208 48.464C27.4773 49.488 24.576 50 21.504 50H6.656ZM12.864 44.048H20.288C22.848 44.048 25.1947 43.664 27.328 42.896C29.504 42.128 31.3813 41.0187 32.96 39.568C34.5813 38.1173 35.84 36.3467 36.736 34.256C37.632 32.1227 38.08 29.712 38.08 27.024C38.08 24.1653 37.6107 21.6693 36.672 19.536C35.7333 17.36 34.4533 15.5467 32.832 14.096C31.2107 12.6453 29.376 11.5573 27.328 10.832C25.28 10.064 23.1253 9.68 20.864 9.68H12.864V44.048ZM64.3795 50.64C61.9048 50.64 59.6435 50.1067 57.5955 49.04C55.5902 47.9733 53.9902 46.416 52.7955 44.368C51.6435 42.2773 51.0675 39.7387 51.0675 36.752C51.0675 33.808 51.6862 31.2693 52.9235 29.136C54.1608 26.96 55.8035 25.296 57.8515 24.144C59.9422 22.992 62.2248 22.416 64.6995 22.416C67.1742 22.416 69.2648 22.992 70.9715 24.144C72.6782 25.2533 73.9795 26.576 74.8755 28.112L74.4915 29.136L75.0675 23.504H80.5715V50H74.6195V43.088L75.2595 44.624C75.0888 45.0507 74.7048 45.6053 74.1075 46.288C73.5528 46.928 72.7848 47.5893 71.8035 48.272C70.8648 48.9547 69.7768 49.5307 68.5395 50C67.3022 50.4267 65.9155 50.64 64.3795 50.64ZM65.9795 45.712C67.4728 45.712 68.8168 45.4347 70.0115 44.88C71.2062 44.3253 72.1875 43.5573 72.9555 42.576C73.7662 41.552 74.3208 40.336 74.6195 38.928V33.744C74.2782 32.464 73.6808 31.3547 72.8275 30.416C71.9742 29.4347 70.9502 28.688 69.7555 28.176C68.5608 27.6213 67.2382 27.344 65.7875 27.344C64.2088 27.344 62.7582 27.728 61.4355 28.496C60.1128 29.264 59.0462 30.3307 58.2355 31.696C57.4675 33.0613 57.0835 34.6613 57.0835 36.496C57.0835 38.2027 57.4888 39.76 58.2995 41.168C59.1102 42.576 60.1982 43.6853 61.5635 44.496C62.9288 45.3067 64.4008 45.712 65.9795 45.712ZM96.1835 23.504L96.6955 29.968L96.4395 28.944C97.2928 26.9813 98.6795 25.424 100.6 24.272C102.52 23.0773 104.738 22.48 107.256 22.48C109.773 22.48 111.821 23.2267 113.4 24.72C115.021 26.1707 115.853 28.0693 115.896 30.416V50H109.88V32.528C109.837 31.0773 109.41 29.904 108.6 29.008C107.832 28.0693 106.616 27.6 104.952 27.6C103.416 27.6 102.029 28.0267 100.792 28.88C99.5542 29.7333 98.5728 30.9067 97.8475 32.4C97.1648 33.8933 96.8235 35.6213 96.8235 37.584V50H90.8715V23.504H96.1835ZM126.247 23.504H132.199V50H126.247V23.504ZM125.799 13.904C125.799 12.9653 126.161 12.176 126.887 11.536C127.655 10.896 128.487 10.576 129.383 10.576C130.279 10.576 131.068 10.896 131.751 11.536C132.476 12.176 132.839 12.9653 132.839 13.904C132.839 14.8853 132.476 15.696 131.751 16.336C131.068 16.9333 130.279 17.232 129.383 17.232C128.487 17.232 127.655 16.912 126.887 16.272C126.161 15.632 125.799 14.8427 125.799 13.904ZM154.785 50.64C151.755 50.64 149.153 50.0427 146.977 48.848C144.801 47.6107 143.115 45.9467 141.921 43.856C140.769 41.7227 140.193 39.2907 140.193 36.56C140.193 33.9573 140.854 31.5893 142.177 29.456C143.499 27.3227 145.27 25.616 147.489 24.336C149.707 23.056 152.182 22.416 154.913 22.416C158.411 22.416 161.313 23.44 163.617 25.488C165.921 27.536 167.478 30.352 168.289 33.936L146.465 41.616L145.057 38.096L162.977 31.568L161.697 32.4C161.185 30.992 160.331 29.776 159.137 28.752C157.942 27.6853 156.385 27.152 154.465 27.152C152.843 27.152 151.393 27.5573 150.113 28.368C148.833 29.136 147.83 30.2027 147.105 31.568C146.379 32.9333 146.017 34.4907 146.017 36.24C146.017 38.0747 146.401 39.696 147.169 41.104C147.937 42.4693 148.982 43.5573 150.305 44.368C151.67 45.136 153.206 45.52 154.913 45.52C156.065 45.52 157.174 45.3067 158.241 44.88C159.35 44.4533 160.374 43.8987 161.313 43.216L164.065 47.632C162.742 48.528 161.249 49.2533 159.585 49.808C157.963 50.3627 156.363 50.64 154.785 50.64ZM175.747 0.463997H181.699V50H175.747V0.463997ZM203.005 50.64C200.53 50.64 198.269 50.1067 196.22 49.04C194.215 47.9733 192.615 46.416 191.421 44.368C190.269 42.2773 189.693 39.7387 189.693 36.752C189.693 33.808 190.311 31.2693 191.549 29.136C192.786 26.96 194.429 25.296 196.477 24.144C198.567 22.992 200.85 22.416 203.325 22.416C205.799 22.416 207.89 22.992 209.597 24.144C211.303 25.2533 212.605 26.576 213.501 28.112L213.117 29.136L213.693 23.504H219.197V50H213.245V43.088L213.885 44.624C213.714 45.0507 213.33 45.6053 212.733 46.288C212.178 46.928 211.41 47.5893 210.429 48.272C209.49 48.9547 208.402 49.5307 207.165 50C205.927 50.4267 204.541 50.64 203.005 50.64ZM204.605 45.712C206.098 45.712 207.442 45.4347 208.637 44.88C209.831 44.3253 210.813 43.5573 211.581 42.576C212.391 41.552 212.946 40.336 213.245 38.928V33.744C212.903 32.464 212.306 31.3547 211.453 30.416C210.599 29.4347 209.575 28.688 208.381 28.176C207.186 27.6213 205.863 27.344 204.413 27.344C202.834 27.344 201.383 27.728 200.061 28.496C198.738 29.264 197.671 30.3307 196.861 31.696C196.093 33.0613 195.709 34.6613 195.709 36.496C195.709 38.2027 196.114 39.76 196.925 41.168C197.735 42.576 198.823 43.6853 200.189 44.496C201.554 45.3067 203.026 45.712 204.605 45.712ZM251.219 3.728H257.427V44.048H280.915V50H251.219V3.728ZM287.255 36.496C287.255 33.8507 287.874 31.4613 289.111 29.328C290.391 27.1947 292.14 25.5093 294.359 24.272C296.578 23.0347 299.095 22.416 301.911 22.416C304.812 22.416 307.351 23.0347 309.527 24.272C311.703 25.5093 313.388 27.1947 314.583 29.328C315.778 31.4613 316.375 33.8507 316.375 36.496C316.375 39.1413 315.778 41.552 314.583 43.728C313.388 45.8613 311.682 47.5467 309.463 48.784C307.287 50.0213 304.748 50.64 301.847 50.64C299.031 50.64 296.514 50.064 294.295 48.912C292.119 47.7173 290.391 46.0747 289.111 43.984C287.874 41.8507 287.255 39.3547 287.255 36.496ZM293.207 36.56C293.207 38.2667 293.591 39.824 294.359 41.232C295.127 42.5973 296.151 43.6853 297.431 44.496C298.754 45.3067 300.204 45.712 301.783 45.712C303.447 45.712 304.919 45.3067 306.199 44.496C307.522 43.6853 308.546 42.5973 309.271 41.232C309.996 39.824 310.359 38.2667 310.359 36.56C310.359 34.8533 309.996 33.3173 309.271 31.952C308.546 30.544 307.522 29.4347 306.199 28.624C304.919 27.7707 303.447 27.344 301.783 27.344C300.162 27.344 298.69 27.7707 297.367 28.624C296.087 29.4773 295.063 30.608 294.295 32.016C293.57 33.3813 293.207 34.896 293.207 36.56ZM309.079 10.064L300.951 18.64H297.175L302.487 10.064H309.079ZM340.05 50.64C338.045 50.64 336.103 50.1707 334.226 49.232C332.391 48.2933 330.962 47.0347 329.938 45.456L330.322 43.6V62.736H324.434V23.12H329.554L330.386 29.904L329.746 28.048C331.026 26.4267 332.647 25.0827 334.61 24.016C336.573 22.9493 338.77 22.416 341.202 22.416C343.677 22.416 345.895 23.0133 347.858 24.208C349.863 25.4027 351.442 27.0667 352.594 29.2C353.746 31.3333 354.322 33.8293 354.322 36.688C354.322 39.5467 353.703 42.0213 352.466 44.112C351.229 46.2027 349.522 47.824 347.346 48.976C345.213 50.0853 342.781 50.64 340.05 50.64ZM338.898 45.904C340.605 45.904 342.162 45.52 343.57 44.752C345.021 43.9413 346.173 42.8533 347.026 41.488C347.879 40.08 348.306 38.5013 348.306 36.752C348.306 34.96 347.901 33.3813 347.09 32.016C346.279 30.608 345.191 29.4987 343.826 28.688C342.503 27.8773 341.01 27.472 339.346 27.472C337.81 27.472 336.423 27.7707 335.186 28.368C333.949 28.9653 332.925 29.7973 332.114 30.864C331.303 31.888 330.727 33.0827 330.386 34.448V38.864C330.599 40.2293 331.111 41.4453 331.922 42.512C332.733 43.5787 333.735 44.4107 334.93 45.008C336.167 45.6053 337.49 45.904 338.898 45.904ZM374.66 50.64C371.63 50.64 369.028 50.0427 366.852 48.848C364.676 47.6107 362.99 45.9467 361.796 43.856C360.644 41.7227 360.068 39.2907 360.068 36.56C360.068 33.9573 360.729 31.5893 362.052 29.456C363.374 27.3227 365.145 25.616 367.364 24.336C369.582 23.056 372.057 22.416 374.788 22.416C378.286 22.416 381.188 23.44 383.492 25.488C385.796 27.536 387.353 30.352 388.164 33.936L366.34 41.616L364.932 38.096L382.852 31.568L381.572 32.4C381.06 30.992 380.206 29.776 379.012 28.752C377.817 27.6853 376.26 27.152 374.34 27.152C372.718 27.152 371.268 27.5573 369.988 28.368C368.708 29.136 367.705 30.2027 366.98 31.568C366.254 32.9333 365.892 34.4907 365.892 36.24C365.892 38.0747 366.276 39.696 367.044 41.104C367.812 42.4693 368.857 43.5573 370.18 44.368C371.545 45.136 373.081 45.52 374.788 45.52C375.94 45.52 377.049 45.3067 378.116 44.88C379.225 44.4533 380.249 43.8987 381.188 43.216L383.94 47.632C382.617 48.528 381.124 49.2533 379.46 49.808C377.838 50.3627 376.238 50.64 374.66 50.64ZM398.054 28.368C396.731 28.368 395.6 27.9627 394.661 27.152C393.723 26.3413 393.254 25.1253 393.254 23.504V21.008H397.798V21.84C397.798 22.5227 397.968 22.9707 398.31 23.184C398.651 23.3973 399.206 23.504 399.974 23.504H416.934L401.062 46.352L399.91 45.072H416.742V50H392.23L408.422 26.704L409.446 28.368H398.054Z" fill="#FE8EB1"/>
<path d="M22.4616 84.808H28.4456V87.432H22.4616V84.808ZM39.7644 69.864C42.0897 69.864 43.9137 70.344 45.2364 71.304C46.5804 72.2427 47.2524 73.7147 47.2524 75.72C47.2524 76.936 46.975 77.992 46.4204 78.888C45.8657 79.784 45.087 80.488 44.0844 81C43.103 81.512 41.9404 81.8 40.5964 81.864L40.1484 80.264C41.7057 80.3067 43.103 80.584 44.3404 81.096C45.5777 81.608 46.559 82.3227 47.2844 83.24C48.0097 84.1573 48.3724 85.2453 48.3724 86.504C48.3724 87.656 48.159 88.648 47.7324 89.48C47.3057 90.2907 46.7297 90.9627 46.0044 91.496C45.279 92.008 44.4577 92.392 43.5404 92.648C42.623 92.8827 41.6737 93 40.6924 93H33.8124V69.864H39.7644ZM40.4044 80.008C41.6844 80.008 42.6124 79.656 43.1884 78.952C43.7644 78.2267 44.0524 77.352 44.0524 76.328C44.0524 75.112 43.679 74.2267 42.9324 73.672C42.1857 73.1173 41.183 72.84 39.9244 72.84H36.9164V80.008H40.4044ZM40.5324 90.12C41.3857 90.12 42.1644 89.992 42.8684 89.736C43.5937 89.48 44.159 89.0853 44.5644 88.552C44.991 88.0187 45.2044 87.3467 45.2044 86.536C45.2044 85.64 44.959 84.936 44.4684 84.424C43.999 83.912 43.391 83.5493 42.6444 83.336C41.8977 83.1013 41.1297 82.984 40.3404 82.984H36.9164V90.12H40.5324ZM50.7896 93L60.9016 68.904H61.0936L71.1736 93H67.6216L60.0696 73.768L62.2776 72.328L53.8296 93H50.7896ZM56.7096 84.232H65.3176L66.3416 86.92H55.8136L56.7096 84.232ZM91.2731 91.272C90.8891 91.528 90.3665 91.816 89.7051 92.136C89.0438 92.456 88.2651 92.7227 87.3691 92.936C86.4945 93.1493 85.5345 93.256 84.4891 93.256C82.6971 93.2347 81.0758 92.9147 79.6251 92.296C78.1958 91.6773 76.9798 90.8347 75.9771 89.768C74.9745 88.7013 74.1958 87.4747 73.6411 86.088C73.1078 84.68 72.8411 83.1867 72.8411 81.608C72.8411 79.88 73.1185 78.2907 73.6731 76.84C74.2491 75.368 75.0491 74.0987 76.0731 73.032C77.0971 71.944 78.3025 71.1013 79.6891 70.504C81.0971 69.9067 82.6331 69.608 84.2971 69.608C85.6838 69.608 86.9425 69.8 88.0731 70.184C89.2038 70.5467 90.1745 70.984 90.9851 71.496L89.7371 74.376C89.0971 73.9493 88.3185 73.544 87.4011 73.16C86.5051 72.776 85.5025 72.584 84.3931 72.584C83.2625 72.584 82.1958 72.808 81.1931 73.256C80.1905 73.704 79.3051 74.3333 78.5371 75.144C77.7691 75.9547 77.1611 76.904 76.7131 77.992C76.2865 79.0587 76.0731 80.2107 76.0731 81.448C76.0731 82.7067 76.2651 83.88 76.6491 84.968C77.0545 86.0347 77.6198 86.9627 78.3451 87.752C79.0918 88.5413 79.9878 89.16 81.0331 89.608C82.0785 90.056 83.2518 90.28 84.5531 90.28C85.7265 90.28 86.7718 90.0987 87.6891 89.736C88.6065 89.3733 89.3638 88.968 89.9611 88.52L91.2731 91.272ZM99.6359 79.176L99.5399 80.328L99.9559 79.752L109.428 69.864H113.428L103.86 79.784L113.972 93H110.036L101.588 81.768L99.6359 83.656V93H96.4999V69.864H99.6359V79.176ZM118.219 69.864H133.259V72.84H121.323V79.88H131.979V82.856H121.323V90.024H133.707V93H118.219V69.864ZM159.126 93.736L141.238 75.592L142.134 75.816L142.198 93H139.094V69.16H139.254L156.95 87.368L156.214 87.208L156.15 69.864H159.222V93.736H159.126ZM165.875 93V69.864H172.179C174.462 69.864 176.403 70.216 178.003 70.92C179.624 71.624 180.926 72.552 181.907 73.704C182.888 74.856 183.603 76.136 184.051 77.544C184.52 78.9307 184.755 80.3173 184.755 81.704C184.755 83.4533 184.446 85.0213 183.827 86.408C183.23 87.7947 182.398 88.9787 181.331 89.96C180.264 90.9413 179.038 91.6987 177.651 92.232C176.286 92.744 174.835 93 173.299 93H165.875ZM168.979 90.024H172.691C173.971 90.024 175.144 89.832 176.211 89.448C177.299 89.064 178.238 88.5093 179.027 87.784C179.838 87.0587 180.467 86.1733 180.915 85.128C181.363 84.0613 181.587 82.856 181.587 81.512C181.587 80.0827 181.352 78.8347 180.883 77.768C180.414 76.68 179.774 75.7733 178.963 75.048C178.152 74.3227 177.235 73.7787 176.211 73.416C175.187 73.032 174.11 72.84 172.979 72.84H168.979V90.024ZM200.094 93V69.864H206.398C208.68 69.864 210.622 70.216 212.222 70.92C213.843 71.624 215.144 72.552 216.126 73.704C217.107 74.856 217.822 76.136 218.27 77.544C218.739 78.9307 218.974 80.3173 218.974 81.704C218.974 83.4533 218.664 85.0213 218.046 86.408C217.448 87.7947 216.616 88.9787 215.55 89.96C214.483 90.9413 213.256 91.6987 211.87 92.232C210.504 92.744 209.054 93 207.518 93H200.094ZM203.198 90.024H206.91C208.19 90.024 209.363 89.832 210.43 89.448C211.518 89.064 212.456 88.5093 213.246 87.784C214.056 87.0587 214.686 86.1733 215.134 85.128C215.582 84.0613 215.806 82.856 215.806 81.512C215.806 80.0827 215.571 78.8347 215.102 77.768C214.632 76.68 213.992 75.7733 213.182 75.048C212.371 74.3227 211.454 73.7787 210.43 73.416C209.406 73.032 208.328 72.84 207.198 72.84H203.198V90.024ZM224.187 69.864H239.227V72.84H227.291V79.88H237.947V82.856H227.291V90.024H239.675V93H224.187V69.864ZM246.726 69.864L254.342 89L252.582 88.648L259.814 69.864H263.43L253.222 94.056L243.046 69.864H246.726ZM268.062 69.864H283.102V72.84H271.166V79.88H281.822V82.856H271.166V90.024H283.55V93H268.062V69.864ZM288.937 69.864H292.041V90.024H303.785V93H288.937V69.864ZM306.966 81.448C306.966 79.848 307.265 78.344 307.862 76.936C308.481 75.5067 309.334 74.248 310.422 73.16C311.51 72.0507 312.758 71.1867 314.166 70.568C315.595 69.928 317.131 69.608 318.774 69.608C320.395 69.608 321.91 69.928 323.318 70.568C324.747 71.1867 326.006 72.0507 327.094 73.16C328.203 74.248 329.067 75.5067 329.686 76.936C330.305 78.344 330.614 79.848 330.614 81.448C330.614 83.0907 330.305 84.6267 329.686 86.056C329.067 87.4853 328.203 88.744 327.094 89.832C326.006 90.8987 324.747 91.7413 323.318 92.36C321.91 92.9573 320.395 93.256 318.774 93.256C317.131 93.256 315.595 92.9573 314.166 92.36C312.758 91.7627 311.51 90.9307 310.422 89.864C309.334 88.7973 308.481 87.5493 307.862 86.12C307.265 84.6907 306.966 83.1333 306.966 81.448ZM310.166 81.48C310.166 82.696 310.39 83.8373 310.838 84.904C311.286 85.9493 311.905 86.8773 312.694 87.688C313.483 88.4987 314.401 89.1387 315.446 89.608C316.491 90.056 317.622 90.28 318.838 90.28C320.033 90.28 321.153 90.056 322.198 89.608C323.243 89.1387 324.15 88.4987 324.918 87.688C325.686 86.8773 326.294 85.9493 326.742 84.904C327.19 83.8373 327.414 82.6853 327.414 81.448C327.414 80.232 327.19 79.0907 326.742 78.024C326.294 76.936 325.675 75.9867 324.886 75.176C324.097 74.3653 323.179 73.736 322.134 73.288C321.089 72.8187 319.969 72.584 318.774 72.584C317.558 72.584 316.427 72.8187 315.382 73.288C314.337 73.7573 313.419 74.3973 312.63 75.208C311.841 76.0187 311.233 76.968 310.806 78.056C310.379 79.1227 310.166 80.264 310.166 81.48ZM342.02 69.864C343.705 69.864 345.145 70.152 346.34 70.728C347.534 71.2827 348.452 72.0933 349.092 73.16C349.753 74.2267 350.084 75.5173 350.084 77.032C350.084 77.9493 349.945 78.856 349.668 79.752C349.39 80.6267 348.942 81.4267 348.324 82.152C347.726 82.856 346.937 83.4213 345.956 83.848C344.974 84.2747 343.78 84.488 342.372 84.488H338.948V93H335.844V69.864H342.02ZM342.34 81.512C343.257 81.512 344.014 81.3627 344.612 81.064C345.209 80.7653 345.678 80.392 346.02 79.944C346.361 79.4747 346.606 78.984 346.756 78.472C346.905 77.96 346.98 77.5013 346.98 77.096C346.98 76.6267 346.905 76.1467 346.756 75.656C346.606 75.144 346.35 74.6853 345.988 74.28C345.646 73.8533 345.188 73.512 344.612 73.256C344.057 72.9787 343.364 72.84 342.532 72.84H338.948V81.512H342.34ZM354.875 69.864H369.915V72.84H357.979V79.88H368.635V82.856H357.979V90.024H370.363V93H354.875V69.864ZM381.894 69.864C383.067 69.864 384.145 70.024 385.126 70.344C386.129 70.6427 386.993 71.1013 387.718 71.72C388.465 72.3173 389.041 73.064 389.446 73.96C389.873 74.8347 390.086 75.8587 390.086 77.032C390.086 77.9493 389.947 78.8453 389.67 79.72C389.414 80.5947 388.977 81.3947 388.358 82.12C387.739 82.824 386.929 83.4 385.926 83.848C384.945 84.2747 383.729 84.488 382.278 84.488H378.854V93H375.75V69.864H381.894ZM382.214 81.512C383.131 81.512 383.889 81.3733 384.486 81.096C385.105 80.8187 385.585 80.4667 385.926 80.04C386.267 79.592 386.513 79.112 386.662 78.6C386.811 78.088 386.886 77.608 386.886 77.16C386.886 76.6907 386.801 76.2107 386.63 75.72C386.481 75.208 386.225 74.7387 385.862 74.312C385.521 73.8853 385.062 73.5333 384.486 73.256C383.931 72.9787 383.249 72.84 382.438 72.84H378.854V81.512H382.214ZM386.022 83.272L392.07 93H388.486L382.342 83.368L386.022 83.272ZM395.212 84.808H401.196V87.432H395.212V84.808Z" fill="#FE8EB1"/>
</svg>
