<svg xmlns="http://www.w3.org/2000/svg" version="1.1" xmlns:xlink="http://www.w3.org/1999/xlink" xmlns:svgjs="http://svgjs.com/svgjs" x="0" y="0" viewBox="0 0 448 448" style="enable-background:new 0 0 512 512" xml:space="preserve" class=""><g><path d="M224 448C100.535 448 0 347.465 0 224S100.535 0 224 0s224 100.535 224 224-100.535 224-224 224zm0-426.668C112.266 21.332 21.332 112.266 21.332 224S112.266 426.668 224 426.668 426.668 335.734 426.668 224 335.734 21.332 224 21.332zm0 0" fill="currentColor" data-original="#000000" class=""/><path d="M149.332 106.668H288V128H149.332zM39.2 106.668H128V128H39.2zM300.266 415.05l115.476-265.577 19.563 8.507L319.828 423.56zM147.664 422.516l71.137-163.602 19.566 8.508-71.137 163.601zm0 0" fill="currentColor" data-original="#000000" class=""/><path d="m166.105 121.145 20.086-7.192 111.16 310.457-20.085 7.192zM15.824 148.371l20.086-7.191 95.5 266.726-20.086 7.192zM80.73 121.129l20.086-7.192 90.758 253.481-20.086 7.191zM240.707 121.176l20.086-7.192 85.945 240.04-20.086 7.19zM390.535 260.934l-19.601-8.536c1.601-3.73 2.398-8.796 2.398-15.597a46.684 46.684 0 0 0-4.797-21.336L337.2 154.934a58.666 58.666 0 0 1 43.067-84.801l3.336 21.066C365.504 94.125 352.156 109.672 352 128a36.813 36.813 0 0 0 4.133 17.066l31.332 60.536a67.984 67.984 0 0 1 7.203 31.066c0 10-1.336 17.598-4.133 24.266zm0 0" fill="currentColor" data-original="#000000" class=""/></g></svg>